<mxfile host="65bd71144e">
    <diagram name="Page-1" id="Ad2NxpQ1oZwkrnAcKbU6">
        <mxGraphModel dx="1045" dy="418" grid="1" gridSize="10" guides="1" tooltips="1" connect="1" arrows="1" fold="1" page="1" pageScale="1" pageWidth="827" pageHeight="1169" math="0" shadow="0">
            <root>
                <mxCell id="0"/>
                <mxCell id="1" parent="0"/>
                <mxCell id="xWQVhqNu3ZMGGOUG3YB5-35" value="" style="rounded=1;whiteSpace=wrap;html=1;" parent="1" vertex="1">
                    <mxGeometry x="580" y="400" width="120" height="120" as="geometry"/>
                </mxCell>
                <mxCell id="xWQVhqNu3ZMGGOUG3YB5-36" value="Release" style="text;strokeColor=none;fillColor=none;html=1;fontSize=13;fontStyle=1;verticalAlign=middle;align=center;" parent="1" vertex="1">
                    <mxGeometry x="590" y="410" width="100" height="40" as="geometry"/>
                </mxCell>
                <mxCell id="xWQVhqNu3ZMGGOUG3YB5-49" value="" style="endArrow=none;html=1;rounded=0;exitX=0.88;exitY=0.48;exitDx=0;exitDy=0;exitPerimeter=0;" parent="1" source="xWQVhqNu3ZMGGOUG3YB5-1" edge="1">
                    <mxGeometry width="50" height="50" relative="1" as="geometry">
                        <mxPoint x="550" y="540" as="sourcePoint"/>
                        <mxPoint x="580" y="460" as="targetPoint"/>
                    </mxGeometry>
                </mxCell>
                <mxCell id="xWQVhqNu3ZMGGOUG3YB5-38" value="CTMS Upload" style="rounded=0;whiteSpace=wrap;html=1;" parent="1" vertex="1">
                    <mxGeometry x="590" y="460" width="100" height="40" as="geometry"/>
                </mxCell>
                <mxCell id="xWQVhqNu3ZMGGOUG3YB5-39" value="" style="shape=image;verticalLabelPosition=bottom;verticalAlign=top;imageAspect=0;aspect=fixed;image=data:image/svg+xml,PHN2ZyB4bWxucz0iaHR0cDovL3d3dy53My5vcmcvMjAwMC9zdmciIGlkPSJ0cmFuc3BvcnQtbWFuYWdlbWVudCIgdmlld0JveD0iNC4wMDAwMDA0NzY4MzcxNTggNCA0OC4wMDA5OTk0NTA2ODM1OTQgNDguMDAwMzg1Mjg0NDIzODMiIHdpZHRoPSI0OC4wMDA5OTk0NTA2ODM1OTQiIGhlaWdodD0iNDguMDAwMzg1Mjg0NDIzODMiPjxkZWZzPjxzdHlsZT4uY2xzLTF7ZmlsbDojMGE2ZWQxO30uY2xzLTJ7ZmlsbDojMDUzYjcwO308L3N0eWxlPjwvZGVmcz48dGl0bGU+dHJhbnNwb3J0LW1hbmFnZW1lbnQ8L3RpdGxlPjxwYXRoIGNsYXNzPSJjbHMtMSIgZD0iTTQyLjM3MSw1MmE1LjQsNS40LDAsMCwxLTMuNTE0LTEuMjQ1QTUuNDc2LDUuNDc2LDAsMCwxLDM3LDQ3Ljg3NUgzMy4yOTFhNS4xOTQsNS4xOTQsMCwwLDEtMS44LDIuODgsNS41ODMsNS41ODMsMCwwLDEtNy4wMjksMCw1LjQ4Miw1LjQ4MiwwLDAsMS0xLjg1OC0yLjg4SDIwLjc3NmEyLjM1MSwyLjM1MSwwLDAsMS0yLjQzLTIuNDM3VjM5LjI1YTIuMjI2LDIuMjI2LDAsMCwxLC4yNjItMS4wMzEsMi4yMiwyLjIyLDAsMCwxLS4yNjItMS4wMzFWMjYuODc1YTIuMzUyLDIuMzUyLDAsMCwxLDIuNDMtMi40MzdIMzcuMjI5YTIuNDA5LDIuNDA5LDAsMCwxLDEuNy42ODIsMi4yODcsMi4yODcsMCwwLDEsLjcsMS4zOGguODdhOC40NDQsOC40NDQsMCwwLDEsMy4wMjQuNTQxLDguNjczLDguNjczLDAsMCwxLDIuNTUzLDEuNTE0QTkuMDczLDkuMDczLDAsMCwxLDQ4LDMwLjg0MmE4LjUwOSw4LjUwOSwwLDAsMSwxLjA0MywyLjg2NWwuNDY3LDMuMWguMDY0YTIuNDEsMi40MSwwLDAsMSwxLjcuNjgzQTIuMzMyLDIuMzMyLDAsMCwxLDUyLDM5LjI1djYuMTg4YTIuMzI4LDIuMzI4LDAsMCwxLS43MjcsMS43NTQsMi40LDIuNCwwLDAsMS0xLjcuNjgzSDQ3LjY4OGE1LjIsNS4yLDAsMCwxLTEuOCwyLjg4QTUuNDEsNS40MSwwLDAsMSw0Mi4zNzEsNTJabTAtOC4yNWEyLjcsMi43LDAsMSwwLDEuOTE5Ljc5MkEyLjU4NywyLjU4NywwLDAsMCw0Mi4zNzEsNDMuNzVabS0xNC40LDBhMi43LDIuNywwLDEsMCwxLjkyLjc5MkEyLjU4OSwyLjU4OSwwLDAsMCwyNy45NzQsNDMuNzVabTE5LjcxMSwxLjMxMkg0OS4yVjM5LjYyNUgyMS4xNXY1LjQzN2gxLjQ1NWE1LjYzMSw1LjYzMSwwLDAsMSwxLjg1Mi0yLjg0NCw1LjQ4Niw1LjQ4NiwwLDAsMSw4LjgzMSwyLjg0NEgzN2E1LjYyNSw1LjYyNSwwLDAsMSwxLjg1Mi0yLjg0NCw1LjQ4Nyw1LjQ4NywwLDAsMSw4LjgzMSwyLjg0NFptLTguMDI1LTguMjVoNy4wMjZsLS40NDEtMi42NTdhNS44MTksNS44MTksMCwwLDAtNS43MzgtNC44NDNIMzkuNjZabS0xOC41MSwwaDE1LjdWMjcuMjVIMjEuMTVaIi8+PHBhdGggY2xhc3M9ImNscy0yIiBkPSJNMTUuMzA3LDI4SDExLjU3NWMtMy4xNjYsMC00LjU4My0yLjcxOS00LjU4My01LjQxNWE1LjM4NSw1LjM4NSwwLDAsMSwzLjcyNy01LjEwOWwyLjI2NS0uNzY5LS4yMjMtMi4zODRhOC4wNTgsOC4wNTgsMCwwLDEsMS41MTUtNS4zMzVDMTUuMzEsNy43ODYsMTYuNDcxLDcsMTkuMDkzLDdhNS45MjgsNS45MjgsMCwwLDEsNS44MzMsNC4wMzlsMS4zLDMuMjg5TDI5LjI1MSwxMi41YTMuOTA2LDMuOTA2LDAsMCwxLDIuMDM5LS41OTFBMy45ODMsMy45ODMsMCwwLDEsMzUuMiwxNS4xNjFsLjI4NywxLjUyOSwxLjQxMS42NDVBNS41NzcsNS41NzcsMCwwLDEsNDAuMTEsMjJoMy4wMjFhOC41NzMsOC41NzMsMCwwLDAtNC45OTUtNy4zOTUsNi45NzYsNi45NzYsMCwwLDAtNi44NDYtNS43LDYuOSw2LjksMCwwLDAtMy41ODQsMS4wMjJBOS40MjgsOS40MjgsMCwwLDAsMTkuMDIsNEM4Ljg5MSw0LDkuNzg1LDE0LjYyNiw5Ljc4NSwxNC42MjZBOC4zODUsOC4zODUsMCwwLDAsNCwyMi41ODVDNCwyNy4yMzIsNi45NDEsMzEsMTEuNTc1LDMxaDMuNzMyWiIvPjwvc3ZnPg==" parent="1" vertex="1">
                    <mxGeometry x="616" y="304" width="48" height="48" as="geometry"/>
                </mxCell>
                <mxCell id="xWQVhqNu3ZMGGOUG3YB5-40" value="" style="shape=image;verticalLabelPosition=bottom;verticalAlign=top;imageAspect=0;aspect=fixed;image=data:image/svg+xml,PHN2ZyB4bWxucz0iaHR0cDovL3d3dy53My5vcmcvMjAwMC9zdmciIGlkPSJjbG91ZC1mb3VuZHJ5LXJ1bnRpbWUiIHZpZXdCb3g9IjQgOS45OTgyNzE5NDIxMzg2NzIgNDguMDAxNzI0MjQzMTY0MDYgMzYuMDAyNzg0NzI5MDAzOTA2IiB3aWR0aD0iNDguMDAxNzI0MjQzMTY0MDYiIGhlaWdodD0iMzYuMDAyNzg0NzI5MDAzOTA2Ij48ZGVmcz48c3R5bGU+LmNscy0xe2ZpbGw6IzA1M2I3MDt9LmNscy0ye2ZpbGw6IzBhNmVkMTt9PC9zdHlsZT48L2RlZnM+PHRpdGxlPmNsb3VkLWZvdW5kcnktcnVudGltZTwvdGl0bGU+PHBhdGggY2xhc3M9ImNscy0xIiBkPSJNMTMsMjYuNTM5YTEuNSwxLjUsMCwwLDAtMS41LTEuNWgtNmExLjUsMS41LDAsMCwwLDAsM2g2QTEuNSwxLjUsMCwwLDAsMTMsMjYuNTM5WiIvPjxwYXRoIGNsYXNzPSJjbHMtMSIgZD0iTTguNSwxOS4wNGg2YTEuNSwxLjUsMCwwLDAsMC0zaC02YTEuNSwxLjUsMCwwLDAsMCwzWiIvPjxwYXRoIGNsYXNzPSJjbHMtMSIgZD0iTTE0LjUsMzQuMDM5SDExLjQ0OWExLjUsMS41LDAsMSwwLDAsM0gxNC41YTEuNSwxLjUsMCwwLDAsMC0zWiIvPjxwYXRoIGNsYXNzPSJjbHMtMiIgZD0iTTQ5LjkyLDIzLjVjLS4wNTcsMC0uMTE1LDAtLjE3MiwwSDQ3LjhsLS44NDMtMi4wMzYsMS40LTEuNDA3YTIuMzM1LDIuMzM1LDAsMCwwLC42MzMtMS42MTcsMi4wOTQsMi4wOTQsMCwwLDAtLjYzMy0xLjU0OEw0NS4xLDEzLjY1OGEyLjEsMi4xLDAsMCwwLTEuNTQ1LS42MzMsMi4xNzgsMi4xNzgsMCwwLDAtMS42MTcuNjMzTDQwLjUzLDE1LjA2NWwtMi4wNC0uODQ2VjEyLjI1MUEyLjE2NiwyLjE2NiwwLDAsMCwzNi40MTEsMTBxLS4wODYsMC0uMTcxLDBoLTQuNWEyLjE2NiwyLjE2NiwwLDAsMC0yLjI1LDIuMDc5cTAsLjA4NiwwLC4xNzF2MS45NjhsLTIuMDQuODQ2LTEuNC0xLjQwN2EyLjE4OSwyLjE4OSwwLDAsMC0xLjYxNy0uNjMzLDIuMSwyLjEsMCwwLDAtMS41NDguNjMzTDE5LjY1OSwxNi45YTIuMSwyLjEsMCwwLDAtLjYzMywxLjU0OCwyLjM0NCwyLjM0NCwwLDAsMCwuNjMzLDEuNjE3bDEuNDA3LDEuNDA3TDIwLjIyLDIzLjVIMTguMjUzQTIuMTY2LDIuMTY2LDAsMCwwLDE2LDI1LjU3NmExLjY4MywxLjY4MywwLDAsMCwwLC4xNzR2NC41YTIuMjE1LDIuMjE1LDAsMCwwLC42MzMsMS41ODQsMi4xMjgsMi4xMjgsMCwwLDAsMS42MTcuNjY2aDEuOTY3bC44NDYsMi4wNC0xLjQwNywxLjQwN2EyLjMsMi4zLDAsMCwwLDAsMy4xNjVMMjIuOSw0Mi4zNDZhMi4xLDIuMSwwLDAsMCwxLjU0OC42MzMsMi4xODksMi4xODksMCwwLDAsMS42MTctLjYzM2wxLjQtMS40NzYsMi4wNC45djEuOTcxYTIuMjE4LDIuMjE4LDAsMCwwLC42MzMsMS41ODFBMi4xMywyLjEzLDAsMCwwLDMxLjc1Miw0Nmg0LjVhMi4xMzQsMi4xMzQsMCwwLDAsMS42MTctLjY2NiwyLjIyMiwyLjIyMiwwLDAsMCwuNjMzLTEuNTgxVjQxLjc4MmwyLjA0LS45LDEuNDA3LDEuNDc2YTIuMTc4LDIuMTc4LDAsMCwwLDEuNjE3LjYzMywyLjEwNiwyLjEwNiwwLDAsMCwxLjU0NS0uNjMzTDQ4LjM0NCwzOS4xYTIuMywyLjMsMCwwLDAsMC0zLjE2NWwtMS40LTEuNDA3TDQ3LjgsMzIuNWgxLjk2OGEyLjEzMywyLjEzMywwLDAsMCwxLjYxNy0uNjY2QTIuMjE5LDIuMjE5LDAsMCwwLDUyLDMwLjI1di00LjVBMi4xNjYsMi4xNjYsMCwwLDAsNDkuOTIsMjMuNVpNNDksMjkuNUg0NS43bC0yLjMyMSw1LjcyNCwyLjMsMi4zTDQzLjUzOSwzOS42Nyw0MS4xLDM3LjFsLTUuNiwyLjZWNDNoLTNWMzkuN2wtNS41ODYtMi42LTIuNDU0LDIuNTc3LTIuMTQyLTIuMTQ1LDIuMy0yLjNMMjIuNTcyLDI5LjVIMTl2LTNoMy41N2wyLjA0OS01LjcyMy0yLjMtMi4zLDIuMTU0LTIuMTU0LDIuMzEsMi4zMDdMMzIuNSwxNi41NjJWMTNoM3YzLjU1NWw1LjcyNywyLjA2NCwyLjMtMi4zLDIuMTUzLDIuMTU0TDQzLjQsMjAuODM0LDQ1LjcsMjYuNUg0OVoiLz48cGF0aCBjbGFzcz0iY2xzLTIiIGQ9Ik00MC44NzUsMjcuMzEzLDMwLjgxMywyMi4xMjdhMS4xMDcsMS4xMDcsMCwwLDAtLjUtLjEyNi45LjksMCwwLDAtLjY1Ny4yODIuOTc4Ljk3OCwwLDAsMC0uMjgyLjcxN1YzMy4wNjRhLjg3OC44NzgsMCwwLDAsLjI4Mi42ODcuOTcxLjk3MSwwLDAsMCwuNjU3LjI0OSwxLjEwNywxLjEwNywwLDAsMCwuNS0uMTI2TDQwLjg3NSwyOWEuOTYzLjk2MywwLDAsMCwwLTEuNjg2WiIvPjwvc3ZnPg==" parent="1" vertex="1">
                    <mxGeometry x="316" y="310" width="48" height="36" as="geometry"/>
                </mxCell>
                <mxCell id="xWQVhqNu3ZMGGOUG3YB5-30" value="" style="rounded=1;whiteSpace=wrap;html=1;" parent="1" vertex="1">
                    <mxGeometry x="430" y="400" width="120" height="120" as="geometry"/>
                </mxCell>
                <mxCell id="xWQVhqNu3ZMGGOUG3YB5-31" value="Compliance" style="text;strokeColor=none;fillColor=none;html=1;fontSize=13;fontStyle=1;verticalAlign=middle;align=center;" parent="1" vertex="1">
                    <mxGeometry x="440" y="410" width="100" height="40" as="geometry"/>
                </mxCell>
                <mxCell id="xWQVhqNu3ZMGGOUG3YB5-32" value="SAST / SCA check" style="rounded=0;whiteSpace=wrap;html=1;" parent="1" vertex="1">
                    <mxGeometry x="440" y="450" width="100" height="40" as="geometry"/>
                </mxCell>
                <mxCell id="xWQVhqNu3ZMGGOUG3YB5-24" value="" style="rounded=1;whiteSpace=wrap;html=1;" parent="1" vertex="1">
                    <mxGeometry x="280" y="400" width="120" height="180" as="geometry"/>
                </mxCell>
                <mxCell id="xWQVhqNu3ZMGGOUG3YB5-25" value="Acceptance" style="text;strokeColor=none;fillColor=none;html=1;fontSize=13;fontStyle=1;verticalAlign=middle;align=center;" parent="1" vertex="1">
                    <mxGeometry x="290" y="410" width="100" height="40" as="geometry"/>
                </mxCell>
                <mxCell id="xWQVhqNu3ZMGGOUG3YB5-26" value="Deploy" style="rounded=0;whiteSpace=wrap;html=1;" parent="1" vertex="1">
                    <mxGeometry x="290" y="450" width="100" height="40" as="geometry"/>
                </mxCell>
                <mxCell id="xWQVhqNu3ZMGGOUG3YB5-29" value="E2E Tests" style="rounded=0;whiteSpace=wrap;html=1;" parent="1" vertex="1">
                    <mxGeometry x="290" y="510" width="100" height="40" as="geometry"/>
                </mxCell>
                <mxCell id="xWQVhqNu3ZMGGOUG3YB5-16" value="" style="rounded=1;whiteSpace=wrap;html=1;" parent="1" vertex="1">
                    <mxGeometry x="130" y="401" width="120" height="290" as="geometry"/>
                </mxCell>
                <mxCell id="xWQVhqNu3ZMGGOUG3YB5-17" value="Build&amp;nbsp;" style="text;strokeColor=none;fillColor=none;html=1;fontSize=13;fontStyle=1;verticalAlign=middle;align=center;" parent="1" vertex="1">
                    <mxGeometry x="140" y="411" width="100" height="40" as="geometry"/>
                </mxCell>
                <mxCell id="xWQVhqNu3ZMGGOUG3YB5-19" value="Lint" style="rounded=0;whiteSpace=wrap;html=1;" parent="1" vertex="1">
                    <mxGeometry x="140" y="451" width="100" height="40" as="geometry"/>
                </mxCell>
                <mxCell id="xWQVhqNu3ZMGGOUG3YB5-20" value="Unit Test" style="rounded=0;whiteSpace=wrap;html=1;" parent="1" vertex="1">
                    <mxGeometry x="140" y="571" width="100" height="40" as="geometry"/>
                </mxCell>
                <mxCell id="xWQVhqNu3ZMGGOUG3YB5-21" value="Integration Test" style="rounded=0;whiteSpace=wrap;html=1;" parent="1" vertex="1">
                    <mxGeometry x="140" y="631" width="100" height="40" as="geometry"/>
                </mxCell>
                <mxCell id="xWQVhqNu3ZMGGOUG3YB5-22" value="Build MTAR" style="rounded=0;whiteSpace=wrap;html=1;" parent="1" vertex="1">
                    <mxGeometry x="140" y="511" width="100" height="40" as="geometry"/>
                </mxCell>
                <mxCell id="xWQVhqNu3ZMGGOUG3YB5-1" value="" style="verticalLabelPosition=bottom;html=1;verticalAlign=top;align=center;strokeColor=none;fillColor=#00BEF2;shape=mxgraph.azure.git_repository;" parent="1" vertex="1">
                    <mxGeometry x="40" y="440" width="50" height="50" as="geometry"/>
                </mxCell>
                <mxCell id="xWQVhqNu3ZMGGOUG3YB5-51" value="" style="shape=flexArrow;endArrow=classic;html=1;rounded=0;entryX=0.5;entryY=1;entryDx=0;entryDy=0;exitX=0.5;exitY=0;exitDx=0;exitDy=0;" parent="1" source="xWQVhqNu3ZMGGOUG3YB5-24" target="xWQVhqNu3ZMGGOUG3YB5-40" edge="1">
                    <mxGeometry width="50" height="50" relative="1" as="geometry">
                        <mxPoint x="350" y="400" as="sourcePoint"/>
                        <mxPoint x="400" y="350" as="targetPoint"/>
                    </mxGeometry>
                </mxCell>
                <mxCell id="xWQVhqNu3ZMGGOUG3YB5-52" value="" style="shape=flexArrow;endArrow=classic;html=1;rounded=0;entryX=0.5;entryY=1;entryDx=0;entryDy=0;exitX=0.5;exitY=0;exitDx=0;exitDy=0;" parent="1" edge="1">
                    <mxGeometry width="50" height="50" relative="1" as="geometry">
                        <mxPoint x="639.5" y="400" as="sourcePoint"/>
                        <mxPoint x="639.5" y="352" as="targetPoint"/>
                    </mxGeometry>
                </mxCell>
            </root>
        </mxGraphModel>
    </diagram>
</mxfile>